<svg width="16" height="17" viewBox="0 0 16 17" fill="none" xmlns="http://www.w3.org/2000/svg">
<g id="Linear / Time / Calendar">
<path id="Vector" d="M1.33337 8.5C1.33337 5.98584 1.33337 4.72877 2.11442 3.94772C2.89547 3.16667 4.15255 3.16667 6.66671 3.16667H9.33337C11.8475 3.16667 13.1046 3.16667 13.8857 3.94772C14.6667 4.72877 14.6667 5.98584 14.6667 8.5V9.83333C14.6667 12.3475 14.6667 13.6046 13.8857 14.3856C13.1046 15.1667 11.8475 15.1667 9.33337 15.1667H6.66671C4.15255 15.1667 2.89547 15.1667 2.11442 14.3856C1.33337 13.6046 1.33337 12.3475 1.33337 9.83333V8.5Z" stroke="#6A6A6A"/>
<path id="Vector_2" d="M4.66663 3.16667V2.16667" stroke="#6A6A6A" stroke-linecap="round"/>
<path id="Vector_3" d="M11.3334 3.16667V2.16667" stroke="#6A6A6A" stroke-linecap="round"/>
<path id="Vector_4" d="M1.66663 6.5H14.3333" stroke="#6A6A6A" stroke-linecap="round"/>
<g id="Vector_5">
<path d="M12 11.8333C12 12.2015 11.7015 12.5 11.3333 12.5C10.9651 12.5 10.6666 12.2015 10.6666 11.8333C10.6666 11.4651 10.9651 11.1667 11.3333 11.1667C11.7015 11.1667 12 11.4651 12 11.8333Z" fill="#6A6A6A"/>
<path d="M12 9.16667C12 9.53486 11.7015 9.83333 11.3333 9.83333C10.9651 9.83333 10.6666 9.53486 10.6666 9.16667C10.6666 8.79848 10.9651 8.5 11.3333 8.5C11.7015 8.5 12 8.79848 12 9.16667Z" fill="#6A6A6A"/>
</g>
<g id="Vector_6">
<path d="M8.66671 11.8333C8.66671 12.2015 8.36823 12.5 8.00004 12.5C7.63185 12.5 7.33337 12.2015 7.33337 11.8333C7.33337 11.4651 7.63185 11.1667 8.00004 11.1667C8.36823 11.1667 8.66671 11.4651 8.66671 11.8333Z" fill="#6A6A6A"/>
<path d="M8.66671 9.16667C8.66671 9.53486 8.36823 9.83333 8.00004 9.83333C7.63185 9.83333 7.33337 9.53486 7.33337 9.16667C7.33337 8.79848 7.63185 8.5 8.00004 8.5C8.36823 8.5 8.66671 8.79848 8.66671 9.16667Z" fill="#6A6A6A"/>
</g>
<g id="Vector_7">
<path d="M5.33333 11.8333C5.33333 12.2015 5.03486 12.5 4.66667 12.5C4.29848 12.5 4 12.2015 4 11.8333C4 11.4651 4.29848 11.1667 4.66667 11.1667C5.03486 11.1667 5.33333 11.4651 5.33333 11.8333Z" fill="#6A6A6A"/>
<path d="M5.33333 9.16667C5.33333 9.53486 5.03486 9.83333 4.66667 9.83333C4.29848 9.83333 4 9.53486 4 9.16667C4 8.79848 4.29848 8.5 4.66667 8.5C5.03486 8.5 5.33333 8.79848 5.33333 9.16667Z" fill="#6A6A6A"/>
</g>
</g>
</svg>
