<svg width="32" height="32" viewBox="0 0 32 32" fill="none" xmlns="http://www.w3.org/2000/svg">
<ellipse cx="16" cy="17.3333" rx="4" ry="4" stroke="#FDFDFD" stroke-width="2.5"/>
<path d="M13.3333 26.6667H18.6667C22.4119 26.6667 24.2845 26.6667 25.6297 25.7678C26.2121 25.3787 26.7121 24.8787 27.1012 24.2964C28 22.9512 28 21.0786 28 17.3333C28 13.5881 27.9998 11.7158 27.101 10.3706C26.7119 9.78825 26.2119 9.28824 25.6295 8.89913C24.2843 8.0003 22.4117 8.0003 18.6665 8.0003H13.3331C9.58791 8.0003 7.7153 8.0003 6.3701 8.89913C5.78776 9.28824 5.28775 9.78825 4.89864 10.3706C4.00001 11.7155 4.00001 13.5873 4.00001 17.3309L4.00001 17.3333C4.00001 21.0786 4.00001 22.9512 4.89884 24.2964C5.28795 24.8787 5.78795 25.3787 6.3703 25.7678C7.71549 26.6667 9.58811 26.6667 13.3333 26.6667Z" stroke="#FDFDFD" stroke-width="2.5"/>
<path d="M24 13.3333H23.3333" stroke="#FDFDFD" stroke-width="2.5" stroke-linecap="round"/>
<path d="M20 4H12" stroke="#FDFDFD" stroke-width="2.5" stroke-linecap="round"/>
</svg>
