<svg width="21" height="21" viewBox="0 0 21 21" fill="none" xmlns="http://www.w3.org/2000/svg">
<circle cx="10.1042" cy="10.1042" r="9.9425" fill="#2C2C2C" stroke="white" stroke-width="0.323333"/>
<path fill-rule="evenodd" clip-rule="evenodd" d="M9.09449 14.8345L13.8294 8.71143C14.0867 8.38123 14.1782 7.99948 14.0924 7.61078C14.0181 7.25741 13.8008 6.92142 13.4748 6.66653L12.68 6.0351C11.988 5.48478 11.1303 5.54271 10.6385 6.17413L10.1067 6.86407C10.038 6.95038 10.0552 7.07783 10.141 7.14734C10.141 7.14734 11.4848 8.22482 11.5134 8.248C11.6049 8.33489 11.6735 8.45075 11.6907 8.58978C11.7193 8.86204 11.5306 9.11693 11.2504 9.15169C11.1188 9.16907 10.993 9.12852 10.9015 9.05321L9.48907 7.92939C9.42045 7.87783 9.31751 7.88884 9.26033 7.95835L5.90359 12.303C5.68629 12.5753 5.61195 12.9287 5.68629 13.2704L6.11518 15.13C6.13805 15.2285 6.22383 15.298 6.32676 15.298L8.21385 15.2748C8.55696 15.269 8.87719 15.1126 9.09449 14.8345ZM11.7368 14.2554H14.8139C15.1141 14.2554 15.3583 14.5028 15.3583 14.8069C15.3583 15.1116 15.1141 15.3584 14.8139 15.3584H11.7368C11.4366 15.3584 11.1924 15.1116 11.1924 14.8069C11.1924 14.5028 11.4366 14.2554 11.7368 14.2554Z" fill="white"/>
</svg>
