<svg width="38" height="34" viewBox="0 0 38 34" fill="none" xmlns="http://www.w3.org/2000/svg">
<path fill-rule="evenodd" clip-rule="evenodd" d="M19.0094 12.5342C17.8007 12.5342 16.8209 13.5141 16.8209 14.7228C16.8209 15.9315 17.8007 16.9113 19.0094 16.9113C20.2181 16.9113 21.198 15.9315 21.198 14.7228C21.198 13.5141 20.2181 12.5342 19.0094 12.5342ZM15.3316 14.7228C15.3316 12.6916 16.9783 11.045 19.0094 11.045C21.0406 11.045 22.6872 12.6916 22.6872 14.7228C22.6872 16.754 21.0406 18.4005 19.0094 18.4005C16.9783 18.4005 15.3316 16.754 15.3316 14.7228Z" fill="url(#paint0_linear_236_3166)"/>
<path fill-rule="evenodd" clip-rule="evenodd" d="M11.5053 11.2304C11.7834 8.88154 13.7897 7.05078 16.2115 7.05078H21.827C24.2491 7.05078 26.2556 8.88189 26.5333 11.2311L35.2465 13.9346L35.247 13.9347C36.3663 14.2814 37.141 15.3203 37.141 16.4984V33.0554C37.141 33.4667 36.8077 33.8 36.3964 33.8H1.60361C1.19232 33.8 0.858978 33.4667 0.858978 33.0554V16.4984C0.858978 15.3202 1.63387 14.2811 2.75351 13.9346L2.75386 13.9344L11.5053 11.2304ZM16.2115 8.53997C14.4229 8.53997 12.9617 10.0012 12.9617 11.7899C12.9617 12.1164 12.7489 12.4049 12.4368 12.5013L3.19385 15.3572C2.69257 15.5124 2.34817 15.9785 2.34817 16.4984V32.3108H35.6518V16.4984C35.6518 15.9785 35.3074 15.5124 34.8061 15.3572L25.6009 12.501C25.4491 12.4539 25.3164 12.3595 25.2221 12.2316C25.1278 12.1036 25.0769 11.9488 25.077 11.7899C25.077 10.0012 23.6157 8.53997 21.827 8.53997H16.2115Z" fill="url(#paint1_linear_236_3166)"/>
<path fill-rule="evenodd" clip-rule="evenodd" d="M4.56415 18.4276C4.56415 18.0163 4.89756 17.6829 5.30878 17.6829H7.89458C8.3058 17.6829 8.63922 18.0163 8.63922 18.4276V21.0134C8.63922 21.4246 8.3058 21.758 7.89458 21.758H5.30878C4.89756 21.758 4.56415 21.4246 4.56415 21.0134V18.4276ZM6.05334 19.1721V20.2687H7.14995V19.1721H6.05334ZM10.0444 18.4276C10.0444 18.0163 10.3778 17.6829 10.7891 17.6829H13.3749C13.7861 17.6829 14.1195 18.0163 14.1195 18.4276V26.3973C14.1195 26.8085 13.7861 27.1419 13.3749 27.1419H10.7891C10.3778 27.1419 10.0444 26.8085 10.0444 26.3973V18.4276ZM11.5336 19.1721V25.6526H12.6302V19.1721H11.5336ZM4.56415 23.8113C4.56415 23.4001 4.89756 23.0668 5.30878 23.0668H7.89458C8.3058 23.0668 8.63922 23.4001 8.63922 23.8113V26.3971C8.63922 26.8084 8.3058 27.1418 7.89458 27.1418H5.30878C4.89756 27.1418 4.56415 26.8084 4.56415 26.3971V23.8113ZM6.05334 24.556V25.6526H7.14995V24.556H6.05334ZM23.8998 18.4276C23.8998 18.0163 24.2331 17.6829 24.6443 17.6829H27.2301C27.6414 17.6829 27.9748 18.0163 27.9748 18.4276V26.3973C27.9748 26.8085 27.6414 27.1419 27.2301 27.1419H24.6443C24.2331 27.1419 23.8998 26.8085 23.8998 26.3973V18.4276ZM25.389 19.1721V25.6526H26.4856V19.1721H25.389ZM29.38 18.4276C29.38 18.0163 29.7134 17.6829 30.1246 17.6829H32.7104C33.1217 17.6829 33.4551 18.0163 33.4551 18.4276V21.0134C33.4551 21.4246 33.1217 21.758 32.7104 21.758H30.1246C29.7134 21.758 29.38 21.4246 29.38 21.0134V18.4276ZM30.8693 19.1721V20.2687H31.9659V19.1721H30.8693ZM29.38 23.8113C29.38 23.4001 29.7134 23.0668 30.1246 23.0668H32.7104C33.1217 23.0668 33.4551 23.4001 33.4551 23.8113V26.3971C33.4551 26.8084 33.1217 27.1418 32.7104 27.1418H30.1246C29.7134 27.1418 29.38 26.8084 29.38 26.3971V23.8113ZM30.8693 24.556V25.6526H31.9659V24.556H30.8693ZM15.7951 24.1589C15.7951 22.3776 17.2285 20.9443 19.0098 20.9443C20.7949 20.9443 22.2244 22.4007 22.2244 24.1589V33.0356C22.2244 33.4469 21.8911 33.7802 21.4799 33.7802H16.5398C16.1286 33.7802 15.7951 33.4469 15.7951 33.0356V24.1589ZM19.0098 22.4335C18.7829 22.4325 18.5581 22.4765 18.3483 22.5628C18.1385 22.6492 17.9479 22.7762 17.7875 22.9366C17.6271 23.0971 17.5 23.2877 17.4137 23.4974C17.3273 23.7072 17.2834 23.932 17.2844 24.1589V32.291H20.7352V24.1589C20.7352 23.2156 19.9649 22.4335 19.0098 22.4335Z" fill="url(#paint2_linear_236_3166)"/>
<defs>
<linearGradient id="paint0_linear_236_3166" x1="14.574" y1="-3.17047" x2="30.9108" y2="2.04935" gradientUnits="userSpaceOnUse">
<stop stop-color="#86B560"/>
<stop offset="1" stop-color="#336F4A"/>
</linearGradient>
<linearGradient id="paint1_linear_236_3166" x1="-2.0767" y1="2.09722" x2="38.7309" y2="36.4761" gradientUnits="userSpaceOnUse">
<stop stop-color="#86B560"/>
<stop offset="1" stop-color="#336F4A"/>
</linearGradient>
<linearGradient id="paint2_linear_236_3166" x1="2.2265" y1="14.7019" x2="26.9994" y2="42.3175" gradientUnits="userSpaceOnUse">
<stop stop-color="#86B560"/>
<stop offset="1" stop-color="#336F4A"/>
</linearGradient>
</defs>
</svg>
