<svg width="26" height="32" viewBox="0 0 26 32" fill="none" xmlns="http://www.w3.org/2000/svg">
<path d="M22.6 21.6C22.6 26.464 18.664 30.4 13.8 30.4C8.936 30.4 5 26.464 5 21.6C5 16.736 8.936 12.8 13.8 12.8C14.072 12.8 14.344 12.816 14.6 12.848V18.4C14.6 19.28 15.32 20 16.2 20H22.456C22.552 20.512 22.6 21.056 22.6 21.6Z" fill="url(#paint0_linear_236_3158)" fill-opacity="0.24"/>
<path d="M24.2032 22.5312C24.0481 21.4903 23.5231 20.5401 22.7244 19.8548C21.9257 19.1695 20.9068 18.795 19.8544 18.8H13C12.8939 18.8 12.7921 18.7578 12.7171 18.6828C12.6421 18.6078 12.6 18.5061 12.6 18.4V16.4H19.4C19.7182 16.4 20.0235 16.2736 20.2485 16.0485C20.4735 15.8235 20.6 15.5182 20.6 15.2C20.6 14.8817 20.4735 14.5765 20.2485 14.3515C20.0235 14.1264 19.7182 14 19.4 14H12.6V10.6464C13.7366 10.3768 14.7494 9.73233 15.4751 8.81684C16.2007 7.90135 16.597 6.76818 16.6 5.59998C16.6 2.73278 14.2672 0.399981 11.4 0.399981C8.53277 0.399981 6.19998 2.73278 6.19998 5.59998C6.20295 6.76818 6.5992 7.90135 7.32486 8.81684C8.05052 9.73233 9.0633 10.3768 10.2 10.6464V11.6208C4.87198 11.8336 0.599976 16.2208 0.599976 21.6C0.599976 27.1136 5.08638 31.6 10.6 31.6C16.1136 31.6 20.6 27.1136 20.6 21.6C20.6 21.512 20.5872 21.4288 20.584 21.3408C21.232 21.5936 21.72 22.1696 21.8304 22.8976L23.0128 30.584C23.0688 30.8915 23.2425 31.165 23.4971 31.3464C23.7516 31.5278 24.0669 31.6026 24.3758 31.5551C24.6848 31.5076 24.963 31.3414 25.1512 31.0919C25.3395 30.8424 25.423 30.5293 25.384 30.2192L24.2016 22.5328L24.2032 22.5312ZM8.59998 5.59998C8.59998 4.05598 9.85598 2.79998 11.4 2.79998C12.944 2.79998 14.2 4.05598 14.2 5.59998C14.2 7.14398 12.944 8.39998 11.4 8.39998C9.85598 8.39998 8.59998 7.14398 8.59998 5.59998ZM10.6 29.2C8.58511 29.1974 6.6535 28.3959 5.22877 26.9712C3.80404 25.5465 3.00252 23.6148 2.99998 21.6C2.99998 17.5456 6.19838 14.2528 10.2 14.04V18.4C10.2 19.944 11.456 21.2 13 21.2H18.176C18.1856 21.3328 18.2 21.464 18.2 21.6C18.1974 23.6148 17.3959 25.5465 15.9712 26.9712C14.5465 28.3959 12.6148 29.1974 10.6 29.2Z" fill="url(#paint1_linear_236_3158)"/>
<defs>
<linearGradient id="paint0_linear_236_3158" x1="3.57593" y1="9.54074" x2="27.9989" y2="24.7101" gradientUnits="userSpaceOnUse">
<stop stop-color="#86B560"/>
<stop offset="1" stop-color="#336F4A"/>
</linearGradient>
<linearGradient id="paint1_linear_236_3158" x1="-1.40613" y1="-5.3778" x2="36.932" y2="13.5449" gradientUnits="userSpaceOnUse">
<stop stop-color="#86B560"/>
<stop offset="1" stop-color="#336F4A"/>
</linearGradient>
</defs>
</svg>
