<svg width="33" height="33" viewBox="0 0 33 33" fill="none" xmlns="http://www.w3.org/2000/svg">
<path d="M28.5098 11.1458C27.6382 10.5392 26.5796 10.1827 25.4372 10.1827H22.2065C20.872 10.1827 19.6507 10.6681 18.7098 11.472C17.4762 11.569 16.2691 12.0892 15.3256 13.0328L13.0411 15.3173C12.0973 16.2609 11.5771 17.4678 11.4801 18.7015C10.6763 19.6424 10.1909 20.8637 10.1909 22.1982V25.4291C10.1909 26.5749 10.5495 27.6367 11.1595 28.5098H28.5098V11.1458Z" fill="#D2DFD0"/>
<path d="M0.641174 0.641174H28.5098V6.28353H0.641174V0.641174Z" fill="#D2DFD0"/>
<path d="M32.0588 25.4291V22.1983H30.6696C30.4963 21.4615 30.2045 20.7577 29.8056 20.1144L30.7943 19.1257L28.5098 16.8412L27.5211 17.8299C26.8779 17.431 26.1741 17.1392 25.4372 16.9659V15.5685H22.2065V16.9659C21.4697 17.1392 20.7659 17.431 20.1226 17.8299L19.1339 16.8412L16.8494 19.1257L17.8381 20.1144C17.4392 20.7577 17.1474 21.4615 16.9741 22.1983H15.5767V25.4291H16.9741C17.1474 26.1659 17.4392 26.8697 17.8381 27.5129L16.8494 28.5016L19.1339 30.7861L20.1226 29.7974C20.7659 30.1963 21.4697 30.4881 22.2065 30.6614V32.0588H25.4372V30.6614C26.1741 30.4881 26.8778 30.1963 27.5211 29.7974L28.5098 30.7861L30.7943 28.5017L29.8056 27.513C30.2045 26.8697 30.4963 26.1659 30.6696 25.4291H32.0588V25.4291Z" fill="#D2DFD0"/>
<path d="M23.0989 22.8122C23.0989 20.5452 23.9904 18.4864 25.4419 16.9672L25.4372 16.966V15.5686H22.2065V16.966C21.4697 17.1393 20.7659 17.4311 20.1226 17.83L19.1339 16.8413L16.8494 19.1258L17.8381 20.1145C17.4392 20.7578 17.1474 21.4616 16.9741 22.1984H15.5767V25.4291H16.9741C17.1474 26.1659 17.4392 26.8697 17.8381 27.513L16.8494 28.5016L19.1339 30.7862L20.1226 29.7975C20.7659 30.1964 21.4697 30.4882 22.2065 30.6614V32.0588H25.4372V30.6614C26.0265 30.5225 26.5952 30.3075 27.129 30.0218C24.7111 28.532 23.0989 25.8605 23.0989 22.8122Z" fill="#D2DFD0"/>
<path d="M28.3787 30.6551L28.5098 30.7861L28.567 30.729C28.5039 30.705 28.4411 30.6804 28.3787 30.6551Z" fill="url(#paint0_linear_236_3183)"/>
<path d="M23.8111 27.0128C25.578 27.0128 27.0102 25.5805 27.0102 23.8137C27.0102 22.0469 25.578 20.6146 23.8111 20.6146C22.0443 20.6146 20.6121 22.0469 20.6121 23.8137C20.6121 25.5805 22.0443 27.0128 23.8111 27.0128Z" fill="white"/>
<path d="M16.8494 28.5098H0.641174V0.641174H28.5098V16.8413" stroke="url(#paint1_linear_236_3183)" stroke-width="1.28235" stroke-miterlimit="10" stroke-linejoin="round"/>
<path d="M25.3648 3.46236H13.6716" stroke="url(#paint2_linear_236_3183)" stroke-width="1.28235" stroke-miterlimit="10" stroke-linecap="round" stroke-linejoin="round"/>
<path d="M32.0588 25.4291V22.1983H30.6696C30.4963 21.4615 30.2045 20.7577 29.8056 20.1144L30.7943 19.1257L28.5098 16.8412L27.5211 17.8299C26.8779 17.431 26.1741 17.1392 25.4372 16.9659V15.5685H22.2065V16.9592C21.4587 17.1349 20.7572 17.4368 20.1226 17.8299L19.1339 16.8412L16.8494 19.1257L17.8381 20.1144C17.4392 20.7577 17.1474 21.4615 16.9741 22.1983H15.5767V25.4291H16.9741C17.1474 26.1659 17.4392 26.8697 17.8381 27.5129L16.8494 28.5016L19.1339 30.7861L20.1226 29.7974C20.7659 30.1963 21.4697 30.4881 22.2065 30.6614V32.0588H25.4372V30.6614C26.1741 30.4881 26.8778 30.1963 27.5211 29.7974L28.5098 30.7861L30.7943 28.5017L29.8056 27.513C30.2045 26.8697 30.4963 26.1659 30.6696 25.4291H32.0588V25.4291Z" stroke="url(#paint3_linear_236_3183)" stroke-width="1.28235" stroke-miterlimit="10" stroke-linecap="round" stroke-linejoin="round"/>
<path d="M6.6168 9.74518L4.23175 12.1302L6.6168 14.5153M15.2105 14.5153L17.5955 12.1302L15.2105 9.74518M12.2888 9.10471L9.53851 15.1557" stroke="url(#paint4_linear_236_3183)" stroke-width="1.28235" stroke-miterlimit="10" stroke-linecap="round" stroke-linejoin="round"/>
<path d="M4.23175 17.9769H5.7271M8.74422 17.9769H12.7555M4.23175 25.1578H5.7271M8.94882 25.1578H12.7555M4.23175 21.5674H12.7555" stroke="url(#paint5_linear_236_3183)" stroke-width="1.28235" stroke-miterlimit="10" stroke-linecap="round" stroke-linejoin="round"/>
<defs>
<linearGradient id="paint0_linear_236_3183" x1="28.3635" y1="30.6308" x2="28.5651" y2="30.8107" gradientUnits="userSpaceOnUse">
<stop stop-color="#86B560"/>
<stop offset="1" stop-color="#336F4A"/>
</linearGradient>
<linearGradient id="paint1_linear_236_3183" x1="-1.61375" y1="-4.51968" x2="37.0587" y2="19.5002" gradientUnits="userSpaceOnUse">
<stop stop-color="#86B560"/>
<stop offset="1" stop-color="#336F4A"/>
</linearGradient>
<linearGradient id="paint2_linear_236_3183" x1="12.7255" y1="3.27717" x2="13.1439" y2="6.31563" gradientUnits="userSpaceOnUse">
<stop stop-color="#86B560"/>
<stop offset="1" stop-color="#336F4A"/>
</linearGradient>
<linearGradient id="paint3_linear_236_3183" x1="14.2431" y1="12.5148" x2="37.1211" y2="26.7175" gradientUnits="userSpaceOnUse">
<stop stop-color="#86B560"/>
<stop offset="1" stop-color="#336F4A"/>
</linearGradient>
<linearGradient id="paint4_linear_236_3183" x1="3.15045" y1="7.98414" x2="12.0685" y2="20.2173" gradientUnits="userSpaceOnUse">
<stop stop-color="#86B560"/>
<stop offset="1" stop-color="#336F4A"/>
</linearGradient>
<linearGradient id="paint5_linear_236_3183" x1="3.54207" y1="16.6471" x2="14.1611" y2="24.4762" gradientUnits="userSpaceOnUse">
<stop stop-color="#86B560"/>
<stop offset="1" stop-color="#336F4A"/>
</linearGradient>
</defs>
</svg>
