<svg width="34" height="34" viewBox="0 0 34 34" fill="none" xmlns="http://www.w3.org/2000/svg">
<path d="M33.6 11.8741C33.5208 12.1269 33.3601 12.3465 33.143 12.4984C32.926 12.6504 32.6647 12.7262 32.4 12.7141H26.028L12.852 3.63008C12.4099 3.3266 11.9057 3.12571 11.376 3.04208L14.748 0.642079C15.3506 0.22402 16.0666 0 16.8 0C17.5334 0 18.2494 0.22402 18.852 0.642079L33.084 10.5061C33.3087 10.6454 33.4811 10.855 33.5744 11.1024C33.6677 11.3498 33.6767 11.6211 33.6 11.8741Z" fill="url(#paint0_linear_236_3150)" fill-opacity="0.24"/>
<path d="M32.4 30.9061H1.2C0.88174 30.9061 0.576515 31.0325 0.351472 31.2576C0.126428 31.4826 0 31.7878 0 32.1061C0 32.4243 0.126428 32.7296 0.351472 32.9546C0.576515 33.1797 0.88174 33.3061 1.2 33.3061H32.4C32.7183 33.3061 33.0235 33.1797 33.2485 32.9546C33.4736 32.7296 33.6 32.4243 33.6 32.1061C33.6 31.7878 33.4736 31.4826 33.2485 31.2576C33.0235 31.0325 32.7183 30.9061 32.4 30.9061ZM15.6 15.3061V28.5061C15.6 28.8243 15.7264 29.1296 15.9515 29.3546C16.1765 29.5797 16.4817 29.7061 16.8 29.7061C17.1183 29.7061 17.4235 29.5797 17.6485 29.3546C17.8736 29.1296 18 28.8243 18 28.5061V15.3061C18 14.9878 17.8736 14.6826 17.6485 14.4576C17.4235 14.2325 17.1183 14.1061 16.8 14.1061C16.4817 14.1061 16.1765 14.2325 15.9515 14.4576C15.7264 14.6826 15.6 14.9878 15.6 15.3061ZM22.8 15.3061V28.5061C22.8 28.8243 22.9264 29.1296 23.1515 29.3546C23.3765 29.5797 23.6817 29.7061 24 29.7061C24.3183 29.7061 24.6235 29.5797 24.8485 29.3546C25.0736 29.1296 25.2 28.8243 25.2 28.5061V15.3061C25.2 14.9878 25.0736 14.6826 24.8485 14.4576C24.6235 14.2325 24.3183 14.1061 24 14.1061C23.6817 14.1061 23.3765 14.2325 23.1515 14.4576C22.9264 14.6826 22.8 14.9878 22.8 15.3061ZM8.4 15.3061V28.5061C8.4 28.8243 8.52643 29.1296 8.75147 29.3546C8.97651 29.5797 9.28174 29.7061 9.6 29.7061C9.91826 29.7061 10.2235 29.5797 10.4485 29.3546C10.6736 29.1296 10.8 28.8243 10.8 28.5061V15.3061C10.8 14.9878 10.6736 14.6826 10.4485 14.4576C10.2235 14.2325 9.91826 14.1061 9.6 14.1061C9.28174 14.1061 8.97651 14.2325 8.75147 14.4576C8.52643 14.6826 8.4 14.9878 8.4 15.3061ZM27.6 15.3061V28.5061C27.6 28.8243 27.7264 29.1296 27.9515 29.3546C28.1765 29.5797 28.4817 29.7061 28.8 29.7061C29.1183 29.7061 29.4235 29.5797 29.6485 29.3546C29.8736 29.1296 30 28.8243 30 28.5061V15.3061C30 14.9878 29.8736 14.6826 29.6485 14.4576C29.4235 14.2325 29.1183 14.1061 28.8 14.1061C28.4817 14.1061 28.1765 14.2325 27.9515 14.4576C27.7264 14.6826 27.6 14.9878 27.6 15.3061ZM3.6 15.3061V28.5061C3.6 28.8243 3.72643 29.1296 3.95147 29.3546C4.17652 29.5797 4.48174 29.7061 4.8 29.7061C5.11826 29.7061 5.42348 29.5797 5.64853 29.3546C5.87357 29.1296 6 28.8243 6 28.5061V15.3061C6 14.9878 5.87357 14.6826 5.64853 14.4576C5.42348 14.2325 5.11826 14.1061 4.8 14.1061C4.48174 14.1061 4.17652 14.2325 3.95147 14.4576C3.72643 14.6826 3.6 14.9878 3.6 15.3061ZM1.2 12.7141H32.4C32.6551 12.7135 32.9034 12.6316 33.1088 12.4803C33.3142 12.329 33.4661 12.1162 33.5423 11.8727C33.6186 11.6293 33.6152 11.3679 33.5328 11.1264C33.4504 10.885 33.2932 10.6761 33.084 10.5301L18.852 0.666088C18.2506 0.250666 17.5369 0.028162 16.806 0.028162C16.0751 0.028162 15.3614 0.250666 14.76 0.666088L0.516 10.5301C0.306805 10.6761 0.149589 10.885 0.067174 11.1264C-0.0152414 11.3679 -0.018567 11.6293 0.0576796 11.8727C0.133926 12.1162 0.285777 12.329 0.49119 12.4803C0.696602 12.6316 0.944886 12.7135 1.2 12.7141ZM16.116 2.64609C16.3169 2.50673 16.5555 2.43206 16.8 2.43206C17.0445 2.43206 17.2831 2.50673 17.484 2.64609L28.56 10.3141H5.04L16.116 2.64609Z" fill="url(#paint1_linear_236_3150)"/>
<defs>
<linearGradient id="paint0_linear_236_3150" x1="9.57362" y1="-2.35469" x2="29.1874" y2="18.9872" gradientUnits="userSpaceOnUse">
<stop stop-color="#86B560"/>
<stop offset="1" stop-color="#336F4A"/>
</linearGradient>
<linearGradient id="paint1_linear_236_3150" x1="-2.71867" y1="-6.13442" x2="43.6559" y2="22.9482" gradientUnits="userSpaceOnUse">
<stop stop-color="#86B560"/>
<stop offset="1" stop-color="#336F4A"/>
</linearGradient>
</defs>
</svg>
