<svg width="33" height="34" viewBox="0 0 33 34" fill="none" xmlns="http://www.w3.org/2000/svg">
<path d="M8.4 18C13.0392 18 16.8 14.2392 16.8 9.59999C16.8 4.9608 13.0392 1.19999 8.4 1.19999C3.76081 1.19999 0 4.9608 0 9.59999C0 14.2392 3.76081 18 8.4 18Z" fill="url(#paint0_linear_236_3143)" fill-opacity="0.24"/>
<path d="M16.8 16.8C15.1387 16.8 13.5146 16.3074 12.1332 15.3843C10.7519 14.4613 9.67522 13.1494 9.03944 11.6145C8.40366 10.0796 8.23732 8.39069 8.56143 6.76124C8.88555 5.1318 9.68557 3.63507 10.8603 2.46031C12.0351 1.28555 13.5318 0.485523 15.1613 0.161407C16.7907 -0.162708 18.4797 0.00363958 20.0146 0.639416C21.5495 1.27519 22.8614 2.35184 23.7844 3.73321C24.7074 5.11459 25.2 6.73864 25.2 8.4C25.2 10.6278 24.315 12.7644 22.7397 14.3397C21.1644 15.915 19.0278 16.8 16.8 16.8ZM16.8 2.4C15.6133 2.4 14.4533 2.7519 13.4666 3.41119C12.4799 4.07047 11.7109 5.00755 11.2567 6.1039C10.8026 7.20026 10.6838 8.40666 10.9153 9.57054C11.1468 10.7344 11.7183 11.8035 12.5574 12.6426C13.3965 13.4818 14.4656 14.0532 15.6295 14.2847C16.7934 14.5162 17.9998 14.3974 19.0961 13.9433C20.1925 13.4892 21.1296 12.7201 21.7888 11.7334C22.4481 10.7467 22.8 9.58669 22.8 8.4C22.8 6.8087 22.1679 5.28258 21.0427 4.15736C19.9174 3.03214 18.3913 2.4 16.8 2.4Z" fill="url(#paint1_linear_236_3143)"/>
<path d="M29.076 33.6C28.7578 33.6 28.4525 33.4736 28.2275 33.2485C28.0024 33.0235 27.876 32.7183 27.876 32.4C27.876 32.0817 28.0024 31.7765 28.2275 31.5515C28.4525 31.3264 28.7578 31.2 29.076 31.2C29.2777 31.203 29.4769 31.1551 29.6552 31.0607C29.8335 30.9663 29.9851 30.8285 30.096 30.66C30.2011 30.5144 30.2682 30.3448 30.2912 30.1667C30.3143 29.9886 30.2925 29.8076 30.228 29.64C29.1788 26.9311 27.3349 24.603 24.9384 22.9612C22.5419 21.3194 19.7049 20.4408 16.8 20.4408C13.8951 20.4408 11.0581 21.3194 8.66159 22.9612C6.2651 24.603 4.42118 26.9311 3.37201 29.64C3.30747 29.8076 3.28575 29.9886 3.3088 30.1667C3.33184 30.3448 3.39894 30.5144 3.50401 30.66C3.61494 30.8285 3.76655 30.9663 3.94483 31.0607C4.12311 31.1551 4.32231 31.203 4.52401 31.2H24.804C25.1223 31.2 25.4275 31.3264 25.6525 31.5515C25.8776 31.7765 26.004 32.0817 26.004 32.4C26.004 32.7183 25.8776 33.0235 25.6525 33.2485C25.4275 33.4736 25.1223 33.6 24.804 33.6H4.52401C3.93229 33.6028 3.34899 33.4598 2.82573 33.1835C2.30246 32.9072 1.85537 32.5062 1.52401 32.016C1.2002 31.5531 0.994784 31.0179 0.925748 30.4573C0.856712 29.8966 0.926159 29.3276 1.12801 28.8C2.34994 25.6358 4.50103 22.9156 7.29833 20.9972C10.0956 19.0789 13.4081 18.0521 16.8 18.0521C20.1919 18.0521 23.5044 19.0789 26.3017 20.9972C29.099 22.9156 31.2501 25.6358 32.472 28.8C32.6739 29.3316 32.7433 29.9044 32.6743 30.4689C32.6053 31.0334 32.4 31.5726 32.076 32.04C31.7419 32.5258 31.2937 32.9221 30.7706 33.1941C30.2475 33.4661 29.6656 33.6055 29.076 33.6Z" fill="url(#paint2_linear_236_3143)"/>
<defs>
<linearGradient id="paint0_linear_236_3143" x1="-1.35934" y1="-1.91112" x2="21.9535" y2="12.5688" gradientUnits="userSpaceOnUse">
<stop stop-color="#86B560"/>
<stop offset="1" stop-color="#336F4A"/>
</linearGradient>
<linearGradient id="paint1_linear_236_3143" x1="7.04069" y1="-3.11111" x2="30.3535" y2="11.3688" gradientUnits="userSpaceOnUse">
<stop stop-color="#86B560"/>
<stop offset="1" stop-color="#336F4A"/>
</linearGradient>
<linearGradient id="paint2_linear_236_3143" x1="-1.67322" y1="15.1729" x2="21.7226" y2="44.8939" gradientUnits="userSpaceOnUse">
<stop stop-color="#86B560"/>
<stop offset="1" stop-color="#336F4A"/>
</linearGradient>
</defs>
</svg>
